HIERARCHY
ROOT Hips
{
	OFFSET 0.00000 0.00000 0.00000
	CHANNELS 6 Xposition Yposition Zposition Zrotation Yrotation Xrotation 
	JOINT LHipJoint
	{
		OFFSET 0 0 0
		CHANNELS 3 Zrotation Yrotation Xrotation
		JOINT LeftUpLeg
		{
			OFFSET 1.54859 -1.61379 0.86856
			CHANNELS 3 Zrotation Yrotation Xrotation
			JOINT LeftLeg
			{
				OFFSET 2.25087 -6.18423 0.00000
				CHANNELS 3 Zrotation Yrotation Xrotation
				JOINT LeftFoot
				{
					OFFSET 2.40328 -6.60297 0.00000
					CHANNELS 3 Zrotation Yrotation Xrotation
					JOINT LeftToeBase
					{
						OFFSET 0.17435 -0.47901 2.02453
						CHANNELS 3 Zrotation Yrotation Xrotation
						End Site
						{
							OFFSET 0.00000 -0.00000 1.04844
						}
					}
				}
			}
		}
	}
	JOINT RHipJoint
	{
		OFFSET 0 0 0
		CHANNELS 3 Zrotation Yrotation Xrotation
		JOINT RightUpLeg
		{
			OFFSET -1.54669 -1.61379 0.86856
			CHANNELS 3 Zrotation Yrotation Xrotation
			JOINT RightLeg
			{
				OFFSET -2.28132 -6.26789 0.00000
				CHANNELS 3 Zrotation Yrotation Xrotation
				JOINT RightFoot
				{
					OFFSET -2.51636 -6.91365 0.00000
					CHANNELS 3 Zrotation Yrotation Xrotation
					JOINT RightToeBase
					{
						OFFSET -0.15124 -0.41552 2.21090
						CHANNELS 3 Zrotation Yrotation Xrotation
						End Site
						{
							OFFSET -0.00000 -0.00000 1.13399
						}
					}
				}
			}
		}
	}
	JOINT LowerBack
	{
		OFFSET 0 0 0
		CHANNELS 3 Zrotation Yrotation Xrotation
		JOINT Spine
		{
			OFFSET -0.04287 2.26161 -0.25690
			CHANNELS 3 Zrotation Yrotation Xrotation
			JOINT Spine1
			{
				OFFSET 0.02248 2.28395 -0.10140
				CHANNELS 3 Zrotation Yrotation Xrotation
				JOINT Neck
				{
					OFFSET 0 0 0
					CHANNELS 3 Zrotation Yrotation Xrotation
					JOINT Neck1
					{
						OFFSET -0.11644 1.38496 0.11345
						CHANNELS 3 Zrotation Yrotation Xrotation
						JOINT Head
						{
							OFFSET 0.29383 1.36600 0.06642
							CHANNELS 3 Zrotation Yrotation Xrotation
							End Site
							{
								OFFSET 0.11075 1.41395 -0.00294
							}
						}
					}
				}
				JOINT LeftShoulder
				{
					OFFSET 0 0 0
					CHANNELS 3 Zrotation Yrotation Xrotation
					JOINT LeftArm
					{
						OFFSET 3.51628 0.59542 -0.30346
						CHANNELS 3 Zrotation Yrotation Xrotation
						JOINT LeftForeArm
						{
							OFFSET 4.76405 -0.00000 0.00000
							CHANNELS 3 Zrotation Yrotation Xrotation
							JOINT LeftHand
							{
								OFFSET 3.13759 -0.00000 -0.00000
								CHANNELS 3 Zrotation Yrotation Xrotation
								JOINT LeftFingerBase
								{
									OFFSET 0 0 0
									CHANNELS 3 Zrotation Yrotation Xrotation
									JOINT LeftHandIndex1
									{
										OFFSET 0.73226 -0.00000 -0.00000
										CHANNELS 3 Zrotation Yrotation Xrotation
										End Site
										{
											OFFSET 0.59037 -0.00000 -0.00000
										}
									}
								}
								JOINT LThumb
								{
									OFFSET 0 0 0
									CHANNELS 3 Zrotation Yrotation Xrotation
									End Site
									{
										OFFSET 0.59938 -0.00000 0.59938
									}
								}
							}
						}
					}
				}
				JOINT RightShoulder
				{
					OFFSET 0 0 0
					CHANNELS 3 Zrotation Yrotation Xrotation
					JOINT RightArm
					{
						OFFSET -3.30990 0.84213 -0.36430
						CHANNELS 3 Zrotation Yrotation Xrotation
						JOINT RightForeArm
						{
							OFFSET -5.10161 -0.00000 -0.00000
							CHANNELS 3 Zrotation Yrotation Xrotation
							JOINT RightHand
							{
								OFFSET -3.23267 -0.00000 -0.00000
								CHANNELS 3 Zrotation Yrotation Xrotation
								JOINT RightFingerBase
								{
									OFFSET 0 0 0
									CHANNELS 3 Zrotation Yrotation Xrotation
									JOINT RightHandIndex1
									{
										OFFSET -0.70200 -0.00000 -0.00000
										CHANNELS 3 Zrotation Yrotation Xrotation
										End Site
										{
											OFFSET -0.56597 -0.00000 -0.00000
										}
									}
								}
								JOINT RThumb
								{
									OFFSET 0 0 0
									CHANNELS 3 Zrotation Yrotation Xrotation
									End Site
									{
										OFFSET -0.57461 -0.00000 0.57461
									}
								}
							}
						}
					}
				}
			}
		}
	}
}
MOTION
Frames: 12
Frame Time: .0083333
-12.0917 13.6973 -1.6019 -11.0103 120.4940 17.4704 0.0000 0.0000 0.0000 -11.6168 7.2289 -23.2512 8.5785 16.5287 54.6207 0.4220 -10.5488 -12.8188 6.0247 -14.4523 -45.0808 0.0000 0.0000 0.0000 19.4720 4.2358 -77.9700 -25.6302 -19.2224 106.6692 -0.3493 -9.4013 -18.2650 -4.4162 12.6946 -38.2358 -9.9858 1.6448 29.5519 0.4687 1.1888 11.8201 5.8609 0.9385 -2.8599 -17.2058 -13.6254 1.9177 36.5962 -11.6108 -33.4746 17.1035 -6.6232 -5.8299 -0.0000 -0.0000 0.0000 -61.8055 -33.8917 -10.6108 62.6901 -56.9852 -36.5883 -0.0000 0.0000 -69.2733 -21.7993 44.7994 -15.7389 -7.1250 0.0000 -0.0000 -70.7553 61.1475 -37.4849 -0.0000 -0.0000 0.0000 80.7948 11.1685 7.5738 -37.5660 46.5599 -16.6498 0.0000 -0.0000 -1.9317 -61.4340 38.7205 -48.9640 7.1250 -0.0000 -0.0000 -12.8438 28.0829 -17.6635
-11.6644 13.7198 -1.9023 -12.2134 119.7410 16.8552 0.0000 0.0000 0.0000 -12.5454 7.6026 -19.9493 7.5416 15.7715 50.8942 0.1185 -9.6459 -8.6478 5.4351 -13.8576 -42.6701 0.0000 0.0000 0.0000 19.9151 6.2846 -80.6701 -24.3856 -19.5325 102.9192 -0.3824 -8.8488 -18.0821 -4.7774 13.1287 -39.8522 -9.3484 1.5514 29.0642 0.1213 1.1854 11.5956 5.1075 0.9508 -2.9124 -17.1936 -13.1245 2.0222 35.3832 -11.2160 -32.9175 16.5709 -6.3307 -5.9710 -0.0000 0.0000 0.0000 -62.8155 -29.9032 -11.2185 65.5344 -57.6129 -38.9819 -0.0000 0.0000 -67.6321 -26.6183 42.5766 -18.7304 -7.1250 0.0000 -0.0000 -71.1248 58.8222 -34.0312 -0.0000 0.0000 0.0000 80.9328 9.5610 6.1519 -37.8798 46.7624 -16.8780 0.0000 -0.0000 -5.8023 -60.6354 38.0945 -47.6357 7.1250 -0.0000 -0.0000 -12.7418 26.8926 -17.4136
-11.2245 13.7334 -2.2159 -13.7220 119.0350 16.0126 0.0000 0.0000 0.0000 -13.5500 7.5779 -16.4399 6.4960 14.8924 46.9415 -0.0773 -8.0875 -3.8873 4.6763 -13.0097 -39.4048 0.0000 0.0000 0.0000 20.2910 7.9096 -82.9962 -22.9883 -19.7845 98.7673 -0.5046 -7.6565 -18.3480 -5.2365 13.6453 -41.8346 -8.8214 1.4448 28.3423 -0.1773 1.1631 11.4157 4.4856 0.9398 -2.7956 -17.5089 -12.9976 2.0744 34.8854 -11.2922 -32.4913 16.3404 -6.3165 -5.8615 0.0000 0.0000 0.0000 -64.1276 -26.0257 -11.9566 67.3812 -57.9758 -40.5447 -0.0000 0.0000 -65.5701 -30.7137 40.8785 -21.2460 -7.1250 0.0000 -0.0000 -71.8623 56.9965 -31.4365 0.0000 0.0000 0.0000 81.0335 7.9882 4.7743 -38.2969 47.0279 -17.1825 0.0000 -0.0000 -9.1986 -60.4540 38.1058 -47.4319 7.1250 -0.0000 -0.0000 -12.6498 26.7751 -17.2728
-10.7645 13.7685 -2.5325 -14.9161 118.3750 15.4864 0.0000 0.0000 0.0000 -14.2834 7.2651 -12.8674 5.4691 13.8933 42.8118 -0.1069 -5.9179 0.8493 4.0670 -12.2490 -36.6185 0.0000 0.0000 0.0000 21.1075 9.3202 -84.9735 -21.4026 -19.9528 94.1040 -0.6380 -6.0420 -18.4865 -5.7602 14.1919 -44.0115 -7.7596 1.2525 27.6911 -0.7251 1.1267 11.1595 3.2897 0.9469 -2.7970 -17.3246 -12.8504 1.8401 34.0704 -11.3561 -31.6366 15.7933 -6.3037 -5.6585 0.0000 0.0000 0.0000 -64.9730 -22.1496 -12.7177 68.4638 -58.1728 -41.4636 -0.0000 0.0000 -64.0556 -35.3157 38.8952 -23.9811 -7.1250 0.0000 -0.0000 -72.6098 54.9827 -28.1953 0.0000 0.0000 0.0000 81.6890 6.4772 3.3575 -38.5054 47.1591 -17.3352 0.0000 -0.0000 -11.4595 -60.5967 38.1731 -47.6404 7.1250 -0.0000 -0.0000 -12.6885 26.9434 -17.3429
-10.3125 13.7798 -2.8411 -16.3237 117.8270 14.6686 0.0000 0.0000 0.0000 -15.0345 6.5026 -9.3048 4.5688 12.8811 38.9251 -0.0232 -3.9287 4.4695 4.0890 -12.2779 -36.7221 0.0000 0.0000 0.0000 22.1285 10.4526 -86.2738 -19.7947 -19.9990 89.3996 -0.7763 -4.3189 -18.7587 -6.2269 14.6447 -45.8856 -7.2868 1.2928 27.1125 -0.7840 1.2722 10.9999 2.9207 1.0115 -2.7310 -17.2377 -12.5410 1.6474 32.4679 -11.2689 -31.1402 15.0348 -6.1236 -5.7128 0.0000 0.0000 0.0000 -66.8073 -18.4087 -13.1708 70.5097 -58.5148 -43.2051 -0.0000 0.0000 -65.9053 -35.9924 39.0570 -24.5918 -7.1250 0.0000 -0.0000 -73.2887 54.9144 -28.5940 0.0000 0.0000 0.0000 81.4644 5.2404 1.9186 -38.5141 47.1645 -17.3416 0.0000 -0.0000 -12.8150 -61.0189 38.2355 -48.1732 7.1250 -0.0000 -0.0000 -12.8635 27.3069 -17.6232
-9.8464 13.7978 -3.1444 -18.2071 117.5970 13.0104 0.0000 0.0000 0.0000 -15.9370 5.3697 -5.4845 3.8338 11.9359 35.5055 0.0655 -3.0623 6.9364 4.7038 -13.0423 -39.5270 0.0000 0.0000 0.0000 23.2403 10.8528 -86.8946 -18.1931 -19.9215 84.7105 -0.9551 -1.6716 -19.1370 -6.4578 14.8578 -46.7926 -6.9040 1.2658 26.9966 -0.9672 1.3106 10.9348 2.4919 1.0425 -2.7549 -17.3512 -12.4876 1.6520 31.8136 -11.3899 -30.9176 14.7422 -6.1261 -5.6857 0.0000 -0.0000 0.0000 -68.4163 -14.7258 -14.0168 72.6265 -58.8282 -45.0133 -0.0000 0.0000 -69.2282 -37.0162 39.7358 -25.7337 -7.1250 0.0000 -0.0000 -74.8708 55.0125 -30.0831 0.0000 -0.0000 0.0000 81.5539 4.0669 0.5437 -38.7308 47.2997 -17.5007 0.0000 -0.0000 -13.4644 -61.3402 38.2773 -48.5773 7.1250 -0.0000 -0.0000 -12.9989 27.5798 -17.8398
-9.3853 13.8104 -3.4517 -20.1698 117.4450 11.4683 0.0000 0.0000 0.0000 -17.0448 3.9928 -2.3702 3.3423 11.2295 33.0579 0.1453 -2.5881 8.6388 5.3806 -13.8000 -42.4419 0.0000 0.0000 0.0000 24.4985 10.9788 -87.4126 -16.6570 -19.7299 80.1832 -1.0948 1.6555 -19.2952 -6.5796 14.9674 -47.2657 -6.5545 1.2225 26.5505 -1.1286 1.3298 10.8405 2.1189 1.0532 -2.6535 -17.3751 -12.3783 2.0998 31.2678 -11.3744 -31.1668 14.6103 -6.0970 -5.9215 0.0000 -0.0000 0.0000 -70.2860 -11.1504 -15.1501 75.0780 -59.1417 -47.1144 -0.0000 0.0000 -73.2120 -37.2604 40.5902 -26.3330 -7.1250 0.0000 -0.0000 -76.1541 55.3477 -31.8589 0.0000 -0.0000 0.0000 81.7046 2.8019 -0.6861 -39.1033 47.5296 -17.7749 0.0000 -0.0000 -13.7074 -61.2472 38.1888 -48.4119 7.1250 -0.0000 -0.0000 -12.9938 27.4250 -17.8187
-8.9246 13.8088 -3.7510 -22.3671 117.3970 9.5546 0.0000 0.0000 0.0000 -18.3008 2.6468 0.2652 3.1096 10.8705 31.8443 0.2067 -1.8625 9.4817 6.0042 -14.4324 -44.9987 0.0000 0.0000 0.0000 25.7585 10.8259 -87.3589 -15.2544 -19.4513 76.0018 -1.0962 3.8129 -18.8862 -6.2437 14.6604 -45.9522 -6.5964 1.2743 26.1599 -1.1541 1.3907 10.7859 2.1055 1.0729 -2.5349 -17.3866 -12.3605 2.5729 30.7551 -11.5304 -31.3283 14.4585 -6.1679 -6.0852 0.0000 -0.0000 0.0000 -72.6506 -7.6361 -16.4330 78.0237 -59.4510 -49.6473 -0.0000 0.0000 -76.5239 -37.8643 41.2798 -27.1547 -7.1250 0.0000 -0.0000 -77.4827 55.5136 -33.3738 0.0000 -0.0000 0.0000 81.6493 1.4900 -1.6221 -39.4506 47.7410 -18.0316 0.0000 -0.0000 -13.9324 -61.1331 38.1131 -48.2299 7.1250 -0.0000 -0.0000 -12.9728 27.2676 -17.7746
-8.4601 13.8010 -4.0361 -24.9496 117.5130 7.0550 0.0000 0.0000 0.0000 -19.6945 1.5468 2.3293 3.1577 10.9460 32.0981 0.2305 -0.4641 9.2492 6.2459 -14.6625 -45.9607 0.0000 0.0000 0.0000 26.7667 10.4002 -86.8307 -14.0122 -19.1177 72.2418 -0.9812 4.9620 -17.7180 -5.6537 14.0841 -43.5754 -6.9396 1.4039 25.9512 -1.2320 1.4933 10.8065 2.1921 1.1146 -2.4172 -17.2608 -12.3586 2.9747 30.3224 -11.6964 -31.3004 14.2834 -6.2656 -6.1753 -0.0000 -0.0000 0.0000 -75.0817 -4.2208 -17.7120 81.3517 -59.7155 -52.5175 -0.0000 0.0000 -78.6634 -38.9720 41.3503 -28.1226 -7.1250 0.0000 -0.0000 -78.3355 55.2916 -33.6975 -0.0000 -0.0000 0.0000 81.6969 0.2597 -2.4418 -39.8391 47.9743 -18.3196 0.0000 -0.0000 -14.5436 -60.7237 37.9691 -47.6589 7.1250 -0.0000 -0.0000 -12.8395 26.8305 -17.5459
-8.0035 13.7710 -4.3104 -27.5464 117.8490 4.7508 0.0000 0.0000 0.0000 -20.9607 0.7055 3.3266 3.4836 11.4395 33.7768 0.2095 1.3183 8.2823 5.9523 -14.3820 -44.7901 0.0000 0.0000 0.0000 27.3526 10.0029 -86.1233 -12.9614 -18.7682 69.0057 -0.8046 6.6288 -16.0095 -4.2589 12.4972 -37.5145 -7.0687 1.4196 25.5130 -1.6235 1.4982 10.7714 1.8479 1.1204 -2.2376 -16.7074 -12.4159 3.2672 30.0269 -11.7829 -31.4383 14.1084 -6.3577 -6.3388 -0.0000 0.0000 0.0000 -77.1251 -0.9713 -19.2621 84.6405 -59.8912 -55.3603 -0.0000 0.0000 -79.7940 -40.5521 40.6895 -29.1551 -7.1250 0.0000 -0.0000 -78.5252 54.6603 -32.5463 -0.0000 0.0000 0.0000 82.3487 -0.9287 -3.1305 -40.2047 48.1907 -18.5916 0.0000 -0.0000 -15.3253 -60.2731 37.6853 -46.9527 7.1250 -0.0000 -0.0000 -12.7463 26.2250 -17.3575
-7.5482 13.7297 -4.5723 -29.9018 118.2140 2.3847 0.0000 0.0000 0.0000 -21.9363 0.3438 3.7990 4.0792 12.2651 36.6763 0.1672 2.6490 7.2611 5.6580 -14.0885 -43.5931 0.0000 0.0000 0.0000 27.6174 9.5253 -84.6884 -12.1924 -18.4708 66.5973 -0.6153 7.5494 -14.1542 -3.2411 11.0755 -32.5348 -7.8915 1.7297 25.1305 -1.4250 1.7627 10.8483 2.4698 1.2141 -1.9928 -16.9776 -12.5212 3.5983 29.9612 -12.1267 -31.2023 14.0924 -6.5453 -6.2208 0.0000 -0.0000 0.0000 -80.1518 2.0420 -20.9222 88.0779 -59.9860 -58.3355 -0.0000 0.0000 -80.6013 -42.0617 39.8563 -30.0403 -7.1250 0.0000 -0.0000 -78.4222 53.9814 -30.9746 0.0000 -0.0000 0.0000 82.0282 -2.1326 -3.6303 -40.4132 48.3128 -18.7472 0.0000 -0.0000 -16.4144 -59.7463 37.3852 -46.1502 7.1250 -0.0000 -0.0000 -12.6208 25.5495 -17.1159
-7.0857 13.6978 -4.8211 -32.0884 118.7310 0.1237 0.0000 0.0000 0.0000 -22.7236 -0.0286 3.6312 4.9496 13.3268 40.6045 0.1407 3.4344 6.7265 5.7796 -14.2113 -44.0906 0.0000 0.0000 0.0000 27.8536 8.8536 -83.1049 -11.6824 -18.2531 64.9784 -0.4626 7.2583 -12.3790 -0.3313 3.6990 -10.2314 -8.1520 1.8944 24.9239 -1.7678 1.9390 10.8707 2.2040 1.3064 -1.8728 -16.3879 -12.9253 3.8414 30.2536 -12.6250 -31.2382 14.0690 -6.9164 -6.1641 -0.0000 -0.0000 0.0000 -82.0210 4.8993 -22.6268 91.3492 -59.9931 -61.1684 -0.0000 0.0000 -81.8452 -43.0831 39.2115 -30.5932 -7.1250 0.0000 -0.0000 -78.2319 53.4920 -29.7029 -0.0000 -0.0000 0.0000 82.7037 -3.3945 -4.0189 -40.6490 48.4498 -18.9235 0.0000 -0.0000 -17.8241 -58.8978 37.1302 -45.0160 7.1250 -0.0000 -0.0000 -12.3177 24.6998 -16.6078
